<mxfile host="app.diagrams.net" modified="2024-07-11T01:15:44.142Z" agent="Mozilla/5.0 (Macintosh; Intel Mac OS X 10_15_7) AppleWebKit/537.36 (KHTML, like Gecko) Chrome/119.0.0.0 Safari/537.36" version="24.6.4" etag="cd7aII8aNNfmv24424Ah" type="github">
  <diagram name="ページ1" id="4Dl-TgGVovUKGQ-1v7Vy">
    <mxGraphModel>
      <root>
        <mxCell id="0" />
        <mxCell id="1" parent="0" />
      </root>
    </mxGraphModel>
  </diagram>
</mxfile>
